<svg xmlns="http://www.w3.org/2000/svg" viewBox="0 0 24 24" fill="none" aria-hidden="true">
  <path fill="currentColor" d="M12 2.4 18.2 5.2v5.4c0 3.1-1.6 6-4.2 7.6L12 20.9l-1.8-2.3c-2.6-1.6-4.2-4.5-4.2-7.6V5.2L12 2.4zm0 1.9L8.2 6.3v4.7c0 2.4 1.2 4.6 3.1 5.9l.7.9.7-.9c1.9-1.3 3.1-3.5 3.1-5.9V6.3L12 4.3z"/>
  <path stroke="currentColor" stroke-width="1.15" stroke-linecap="round" d="M9.2 9.4l5.6 5.6M14.8 9.4l-5.6 5.6"/>
  <path fill="currentColor" d="M12 8.2l-.4 1.5h-1.5l1.2.9-.5 1.5L12 11.1l1 1-.5-1.5 1.2-.9h-1.5L12 8.2z" opacity=".85"/>
</svg>
